<svg width="85" height="69" viewBox="0 0 85 69" fill="none" xmlns="http://www.w3.org/2000/svg">
<rect width="85" height="69" fill="white"/>
<path fill-rule="evenodd" clip-rule="evenodd" d="M27.647 22.393C30.2322 16.9635 34.5559 12.5524 39.9327 9.8592C45.3094 7.16599 51.4314 6.34482 57.3278 7.52592C63.2242 8.70702 68.5576 11.8228 72.4822 16.3791C76.4068 20.9355 78.6979 26.6716 78.9924 32.6779C79.2869 38.6842 77.5678 44.617 74.1077 49.5353C70.6476 54.4537 65.6446 58.0762 59.892 59.8284C54.1394 61.5806 47.9664 61.3622 42.352 59.2079C36.7376 57.0535 32.0031 53.0865 28.8993 47.9359L33.2623 47.0255C37.4347 52.9067 44.2981 56.7446 52.0578 56.7446C64.7766 56.7446 75.0872 46.434 75.0872 33.7152C75.0872 20.9964 64.7766 10.6858 52.0578 10.6858C43.1318 10.6858 35.3918 15.764 31.5694 23.189L27.647 22.393ZM29.2353 34.7941C29.2353 35.3226 29.1984 35.8425 29.1271 36.3513C29.1977 36.6144 29.2353 36.891 29.2353 37.1764V44.3234C29.2353 46.0778 27.8132 47.4999 26.0588 47.4999C24.4746 47.4999 23.1612 46.3401 22.9215 44.8232L22.8825 44.8418V34.7941C22.8825 32.1626 20.7492 30.0294 18.1178 30.0294C15.4863 30.0294 13.3531 32.1626 13.3531 34.7941V44.8419L13.3138 44.8232C13.0741 46.3401 11.7607 47.4999 10.1765 47.4999C8.42215 47.4999 7 46.0778 7 44.3234V37.1764C7 36.891 7.03763 36.6144 7.1082 36.3514C7.03688 35.8425 7 35.3226 7 34.7941C7 28.654 11.9775 23.6765 18.1176 23.6765C24.2577 23.6765 29.2353 28.654 29.2353 34.7941ZM60.603 23.6765C59.9451 23.6765 59.4118 24.2098 59.4118 24.8677V38.6203C59.4118 38.8355 59.451 39.0416 59.5227 39.2317C60.1184 42.5774 63.042 45.1176 66.5589 45.1176C70.5061 45.1176 73.7059 41.9178 73.7059 37.9706C73.7059 34.0234 70.5061 30.8235 66.5589 30.8235C64.7284 30.8235 63.0586 31.5117 61.7941 32.6434V24.8677C61.7941 24.2098 61.2608 23.6765 60.603 23.6765ZM71.3236 37.9706C71.3236 40.602 69.1904 42.7353 66.5589 42.7353C63.9274 42.7353 61.7942 40.602 61.7942 37.9706C61.7942 35.3391 63.9274 33.2059 66.5589 33.2059C69.1904 33.2059 71.3236 35.3391 71.3236 37.9706ZM33.0073 24.4705C32.2398 24.4705 31.6176 25.0927 31.6176 25.8602V44.522C31.6176 45.2895 32.2398 45.9117 33.0073 45.9117C33.7748 45.9117 34.397 45.2895 34.397 44.522V36.3823H43.1323V44.522C43.1323 45.2895 43.7545 45.9117 44.522 45.9117C45.2895 45.9117 45.9117 45.2895 45.9117 44.522V25.8602C45.9117 25.0927 45.2895 24.4705 44.522 24.4705C43.7545 24.4705 43.1323 25.0927 43.1323 25.8602V33.6029H34.397V25.8602C34.397 25.0927 33.7748 24.4705 33.0073 24.4705ZM48.159 30.0294C47.3915 30.0294 46.7693 30.6516 46.7693 31.4191V39.7167C46.7275 39.9716 46.7058 40.2322 46.7058 40.4973C46.7058 43.4876 49.4613 45.9117 52.8602 45.9117C56.1214 45.9117 58.7901 43.6802 59.0012 40.8582H59.0147V31.4191C59.0147 30.6515 58.3925 30.0294 57.625 30.0294C56.8574 30.0294 56.2352 30.6516 56.2352 31.4191V33.3649L56.2355 33.4044V39.649C56.2355 41.513 54.7244 43.024 52.8605 43.024C50.9965 43.024 49.4855 41.513 49.4855 39.649V33.4044C49.4855 33.1808 49.5072 32.9622 49.5487 32.7507V31.4191C49.5487 30.6515 48.9265 30.0294 48.159 30.0294Z" fill="#F58634"/>
</svg>
